<svg xmlns="http://www.w3.org/2000/svg" width="118.656" height="41.335" viewBox="0 0 118.656 41.335">
  <g id="Grupo_77" data-name="Grupo 77" transform="translate(-163.447 -71)">
    <g id="Grupo_44" data-name="Grupo 44" transform="translate(163.447 71)">
      <path id="Caminho_16" data-name="Caminho 16" d="M476.41,695.327H461.55l-2.835,6.859h-7.591l14.267-32.008h7.317l14.313,32.008h-7.774Zm-2.331-5.624L469,677.449,463.927,689.7Z" transform="translate(-451.124 -668.256)" fill="#272727"/>
      <path id="Caminho_17" data-name="Caminho 17" d="M490.723,668.161h7.134v33.93h-7.134Z" transform="translate(-452.999 -668.161)" fill="#272727"/>
      <path id="Caminho_18" data-name="Caminho 18" d="M504.115,668.161h7.133v33.93h-7.133Z" transform="translate(-453.633 -668.161)" fill="#272727"/>
      <path id="Caminho_19" data-name="Caminho 19" d="M541.317,687.873l-17.559,6.169a5.794,5.794,0,0,0,3.441,2.62,7.87,7.87,0,0,0,4.84-.3,9.428,9.428,0,0,0,3.026-1.668,8.267,8.267,0,0,0,2.011-2.622l4.944,2.626q-1.959,4.906-8.258,7.117a16.048,16.048,0,0,1-7.485.909,11.888,11.888,0,0,1-6.152-2.612,12.406,12.406,0,0,1-3.807-5.593,12.576,12.576,0,0,1-.542-6.716,12.012,12.012,0,0,1,2.943-5.832,14.579,14.579,0,0,1,12.467-4.453A11.356,11.356,0,0,1,537,680.205a13.3,13.3,0,0,1,3.811,5.81Q540.855,686.146,541.317,687.873Zm-18.369-1.931a5.838,5.838,0,0,0-.655,4.2l11.433-4.016a5.907,5.907,0,0,0-3.134-2.849,6.02,6.02,0,0,0-4.258.018A6.14,6.14,0,0,0,522.948,685.942Z" transform="translate(-454.174 -668.597)" fill="#272727"/>
      <path id="Caminho_20" data-name="Caminho 20" d="M573.945,681.63l-16.981,22.735a12.862,12.862,0,0,1-5.483,4.829,10.256,10.256,0,0,1-6.254.264,12.533,12.533,0,0,1-3.546-1.477,8.4,8.4,0,0,1-2.587-2.325l3.735-4.315a6.127,6.127,0,0,0,1.573,1.56,5.886,5.886,0,0,0,1.968.9,3.77,3.77,0,0,0,2.478-.126,6.023,6.023,0,0,0,2.158-1.9l.143-.2-4.481-26.6,7.153,1.744,2.754,17.852,10.707-14.57Z" transform="translate(-455.289 -668.484)" fill="#272727"/>
    </g>
  </g>
</svg>
